<svg width="35" height="35" viewBox="0 0 35 35" fill="none" xmlns="http://www.w3.org/2000/svg">
  <rect width="35" height="35" rx="11.45" fill="url(#paint0_linear)" />
  <path
    d="M27.6313 16.4049C27.6589 15.2953 27.4339 14.1938 26.9731 13.1838C26.5124 12.1738 25.7576 11.2815 24.9012 10.5744C23.2663 9.29419 21.2852 8.53228 19.213 8.38679C18.6366 7.79912 17.9508 7.32976 17.194 7.00515C16.3097 6.67777 15.3711 6.47931 14.4283 6.50243C13.1053 6.50243 12.1657 7.04731 11.82 7.50786C11.7828 7.54919 11.7544 7.59756 11.7363 7.6501C11.7182 7.70264 11.7109 7.75827 11.7148 7.81369C11.7186 7.86911 11.7336 7.92319 11.7588 7.97272C11.784 8.02224 11.8189 8.06619 11.8615 8.10197C12.3911 8.44746 12.8369 8.96542 13.1293 9.52578V9.56723H13.0879C11.4577 10.4368 10.1398 11.6521 9.19777 13.2405C8.25576 14.8289 7.76799 16.645 7.78755 18.4912C7.77606 19.8925 8.03589 21.2828 8.55274 22.5855C9.04258 23.799 9.682 24.897 10.6208 25.8093C11.5695 26.7259 12.6958 27.4391 13.9304 27.9048C15.2562 28.4027 16.6615 28.7018 18.0778 28.688C19.9216 28.688 20.42 27.936 20.4552 27.8939C20.4903 27.8517 20.5325 27.6198 20.2371 27.6409C19.9417 27.662 19.8995 27.669 19.4634 27.6128C19.0273 27.5565 17.2742 27.156 17.2197 25.111C17.2083 24.6847 17.278 24.3058 17.4365 23.9099C17.595 23.5139 17.8328 23.1545 18.1353 22.8536C18.1693 22.8217 18.1937 22.7811 18.206 22.7362C18.2184 22.6913 18.2181 22.6439 18.2052 22.5992C18.1924 22.5545 18.1674 22.5141 18.1332 22.4826C18.0989 22.4512 18.0566 22.4297 18.0109 22.4207C17.8379 22.386 17.6618 22.369 17.4854 22.37C16.7963 22.3971 16.3293 22.6778 15.8481 23.1714C15.398 23.6332 15.1373 24.4926 15.1307 25.0056C15.124 25.5186 15.1677 26.0393 15.517 26.6126C14.8459 26.1307 14.2515 24.6451 14.0897 23.1247C13.9279 21.6043 14.4999 20.1336 15.3065 19.3415C16.1255 18.5542 17.1876 18.0906 18.324 18.1047C18.982 18.0754 19.6328 18.1733 20.2367 18.4359C20.8407 18.6985 21.4188 19.0955 21.8458 19.5965C22.472 20.3798 22.9045 21.3447 23.0448 22.3373C23.137 22.9636 23.2706 23.5762 23.7546 23.5762C23.8706 23.5675 23.9836 23.5353 24.0867 23.4815C24.1897 23.4276 24.2807 23.3532 24.3539 23.263C24.5421 23.0382 24.6839 22.7784 24.7709 22.4986C24.858 22.2187 24.8886 21.9244 24.8609 21.6326C24.8609 21.5728 24.8609 21.5083 24.8609 21.43V21.3978H24.8886C25.4577 21.0713 25.9636 20.6173 26.3821 20.1124C27.2227 19.0622 27.6651 17.7492 27.6313 16.4049ZM24.8425 18.8412C24.6672 19.0513 24.4676 19.268 24.2479 19.4312L24.2018 19.4635L24.1741 19.4174C23.8405 18.8694 23.3656 18.3395 22.9007 17.8971C21.6603 16.7442 20.0267 16.1069 18.3326 16.1148C17.504 16.0999 16.6808 16.2517 15.9121 16.5612C15.1435 16.8708 14.445 17.3317 13.8583 17.9165C13.2717 18.5014 12.9073 19.1982 12.5958 19.9655C12.2842 20.7328 12.1305 21.5549 12.1436 22.3829C12.1642 23.6845 12.2643 23.9986 12.5769 24.898C12.4386 24.7782 9.76344 22.8811 9.76045 18.4912C9.75115 16.8526 10.2328 15.2487 11.1433 13.8857C12.0312 12.575 13.2564 11.5534 14.7199 10.9474C15.0575 10.8097 15.4022 10.6897 15.7524 10.5882C15.4834 9.76405 15.0311 9.01144 14.4295 8.38679C15.2014 8.26476 15.9218 8.38213 16.6249 8.72305C17.3279 9.06398 17.9658 9.64019 18.3474 10.3216L18.7438 10.3492C20.5375 10.4036 22.2134 10.9872 23.6428 12.0712C24.2768 12.5931 24.8524 13.2538 25.1897 14.0021C25.527 14.7504 25.6874 15.5663 25.6584 16.3865C25.6894 17.276 25.3999 18.147 24.8425 18.8412Z"
    fill="url(#paint1_radial)" />
  <defs>
    <linearGradient id="paint0_linear" x1="17.5" y1="0" x2="17.5" y2="35" gradientUnits="userSpaceOnUse">
      <stop stop-color="#414244" />
      <stop offset="1" stop-color="#0F1011" />
    </linearGradient>
    <radialGradient id="paint1_radial" cx="0" cy="0" r="1" gradientUnits="userSpaceOnUse"
      gradientTransform="translate(20.0081 6.50061) rotate(105.104) scale(23.581 20.8247)">
      <stop offset="0.285607" stop-color="#FCE19C" />
      <stop offset="0.43743" stop-color="#ECBD70" />
      <stop offset="1" stop-color="#8E6326" />
    </radialGradient>
  </defs>
</svg>
